<svg xmlns="http://www.w3.org/2000/svg" width="15.714" height="15.714">
    <defs>
        <style>
            .cls-1{fill:#8d989d;stroke:#8d989d;stroke-width:.5px}
        </style>
    </defs>
    <g id="Group_1562" data-name="Group 1562" transform="translate(.25 .25)">
        <path id="Path_1398" data-name="Path 1398" class="cls-1" d="M20.907 13.3a7.607 7.607 0 1 0 7.607 7.607 7.607 7.607 0 0 0-7.607-7.607zm0 14.494a6.887 6.887 0 1 1 6.887-6.887 6.9 6.9 0 0 1-6.887 6.887z" transform="translate(-13.3 -13.3)"/>
        <path id="Path_1399" data-name="Path 1399" class="cls-1" d="M62.32 37.161v-4.2a.36.36 0 0 0-.72 0v4.351a.391.391 0 0 0 .105.255l2.9 2.9a.362.362 0 0 0 .51 0 .372.372 0 0 0 0-.51z" transform="translate(-54.353 -29.704)"/>
    </g>
</svg>
